<svg width="24" height="24" viewBox="0 0 24 24" fill="none" xmlns="http://www.w3.org/2000/svg">
<path d="M23.7936 10.9512L20.2239 7.63649V2.20612H16.1119V3.81845L11.9998 0L0.20645 10.9512C0.0403226 11.1058 0.0304537 11.3661 0.185067 11.5327C0.339269 11.6988 0.599562 11.7082 0.766511 11.554L2.1313 10.2867V24H8.71059H15.2899H21.8692V10.2863L23.2339 11.5536C23.3129 11.6272 23.4136 11.6634 23.514 11.6634C23.6246 11.6634 23.7344 11.6194 23.815 11.5323C23.9696 11.3661 23.9597 11.1058 23.7936 10.9512ZM16.9343 3.02853H19.4015V6.87289L16.9343 4.58206V3.02853ZM9.53259 23.1776V14.5164C9.53259 14.3038 9.70529 14.1311 9.91789 14.1311H14.0818C14.2943 14.1311 14.467 14.3038 14.467 14.5164V23.1776H9.53259ZM21.0463 23.1776H15.2895V14.5164C15.2895 13.8502 14.7479 13.3087 14.0818 13.3087H9.91789C9.25173 13.3087 8.71018 13.8502 8.71018 14.5164V23.1776H2.9533V9.52269L11.9998 1.12218L17.8718 6.57476L20.2239 8.75867L21.0463 9.52228V23.1776Z" fill="#B3B3B3"/>
</svg>
