<svg width="24" height="24" viewBox="0 0 24 24" fill="none" xmlns="http://www.w3.org/2000/svg">
<path d="M12.1389 10.4306C13.6531 10.4306 14.8855 9.19816 14.8855 7.68403C14.8855 6.16991 13.6531 4.9375 12.1389 4.9375C10.6248 4.9375 9.3924 6.16991 9.3924 7.68403C9.3924 9.19816 10.6244 10.4306 12.1389 10.4306ZM12.1389 5.72222C13.2207 5.72222 14.1007 6.60229 14.1007 7.68403C14.1007 8.76578 13.2207 9.64584 12.1389 9.64584C11.0572 9.64584 10.1771 8.76578 10.1771 7.68403C10.1771 6.60229 11.0572 5.72222 12.1389 5.72222Z" fill="#808080"/>
<path d="M19.7029 14.7466H16.8931L18.0887 13.0202C20.3467 10.0104 20.0199 5.06306 17.3899 2.43345C15.9691 1.01232 14.0795 0.229553 12.0694 0.229553C10.0598 0.229553 8.17015 1.01232 6.74902 2.43345C4.11902 5.06306 3.79218 10.0107 6.0412 13.0084L7.24496 14.7469H4.29715L0 23.7709H24L19.7029 14.7466ZM6.678 12.5493C4.63811 9.82908 4.93042 5.36126 7.30421 2.98786C8.57703 1.71504 10.2697 1.01388 12.0698 1.01388C13.87 1.01388 15.5623 1.71504 16.8355 2.98786C19.2093 5.36126 19.5016 9.82947 17.4527 12.5611L12.0694 20.335L8.19958 14.7466L6.678 12.5493ZM4.79309 15.5313H7.78839L12.0694 21.7137L16.3501 15.5313H19.2069L22.757 22.9862H1.243L4.79309 15.5313Z" fill="#808080"/>
</svg>
