<svg width="24" height="24" viewBox="0 0 24 24" fill="none" xmlns="http://www.w3.org/2000/svg">
<path d="M16.2428 17.0573C16.0297 17.2705 15.8462 17.5048 15.6875 17.7526L8.65779 13.4855C8.8437 13.0201 8.94907 12.514 8.94907 11.9831C8.94907 11.4522 8.8437 10.9461 8.6582 10.4808L15.6896 6.24622C16.4117 7.38042 17.6777 8.13628 19.1194 8.13628C21.3626 8.13628 23.1876 6.31132 23.1876 4.06814C23.1876 1.82497 21.3626 0 19.1194 0C16.8762 0 15.0513 1.82497 15.0513 4.06814C15.0513 4.5791 15.1501 5.06646 15.3226 5.51721L8.28189 9.75744C7.55451 8.64928 6.30233 7.91498 4.88052 7.91498C2.63735 7.91498 0.812378 9.73994 0.812378 11.9831C0.812378 14.2263 2.63735 16.0513 4.88052 16.0513C6.30233 16.0513 7.5541 15.317 8.28149 14.2088L15.321 18.4816C15.1461 18.9396 15.0509 19.429 15.0509 19.9339C15.0509 21.0205 15.474 22.0424 16.2424 22.8105C17.0353 23.6034 18.0772 24 19.119 24C20.1609 24 21.2027 23.6034 21.9956 22.8105C22.7641 22.042 23.1872 21.0205 23.1872 19.9339C23.1872 18.8473 22.7641 17.8254 21.9956 17.0573C20.4094 15.4707 17.829 15.4707 16.2428 17.0573ZM19.1194 0.813628C20.9139 0.813628 22.3739 2.27368 22.3739 4.06814C22.3739 5.8626 20.9139 7.32265 19.1194 7.32265C17.325 7.32265 15.8649 5.8626 15.8649 4.06814C15.8649 2.27368 17.3246 0.813628 19.1194 0.813628ZM4.88093 15.2376C3.08647 15.2376 1.62641 13.7776 1.62641 11.9831C1.62641 10.1887 3.08647 8.7286 4.88093 8.7286C6.67538 8.7286 8.13544 10.1887 8.13544 11.9831C8.13544 13.7776 6.67538 15.2376 4.88093 15.2376ZM21.4204 22.2352C20.1515 23.5041 18.0869 23.5041 16.8181 22.2352C16.2034 21.6205 15.8649 20.8028 15.8649 19.9339C15.8649 19.0649 16.2034 18.2472 16.8181 17.6325C17.4527 16.9979 18.2859 16.681 19.1194 16.681C19.953 16.681 20.7861 16.9979 21.4208 17.6325C22.0355 18.2472 22.3739 19.0649 22.3739 19.9339C22.3739 20.8028 22.0355 21.6205 21.4204 22.2352Z" fill="#B3B3B3"/>
</svg>
